<?xml version="1.0" standalone="no"?>
<!DOCTYPE svg PUBLIC "-//W3C//DTD SVG 20010904//EN"
 "http://www.w3.org/TR/2001/REC-SVG-20010904/DTD/svg10.dtd">
<svg version="1.0" xmlns="http://www.w3.org/2000/svg"
 width="512.000000pt" height="512.000000pt" viewBox="0 0 512.000000 512.000000"
 preserveAspectRatio="xMidYMid meet">
<metadata>
Created by potrace 1.11, written by Peter Selinger 2001-2013
</metadata>
<g transform="translate(0.000000,512.000000) scale(0.100000,-0.100000)"
fill="#000000" stroke="none">
<path d="M0 2560 l0 -2560 2560 0 2560 0 0 2560 0 2560 -2560 0 -2560 0 0
-2560z m2982 1551 c24 -10 53 -29 64 -42 24 -27 143 -258 555 -1079 156 -311
283 -571 282 -577 0 -7 3 -10 8 -7 8 5 13 -12 12 -43 -1 -7 4 -10 10 -6 6 4 8
0 4 -11 -4 -9 -3 -15 2 -11 14 8 19 -17 8 -42 -9 -21 -11 -21 -35 -5 -22 14
-71 17 -375 20 -288 4 -351 2 -358 -9 -8 -12 -11 -12 -20 1 -9 12 -12 13 -16
1 -4 -10 -7 -11 -13 -1 -5 7 -20 14 -34 16 -24 2 -25 1 -10 -13 13 -14 17 -14
25 -2 5 9 9 10 9 2 0 -11 -26 -43 -35 -43 -3 0 -2 7 1 15 4 9 0 15 -9 15 -19
0 -411 775 -401 792 4 6 3 8 -3 5 -6 -4 -14 0 -17 9 -3 8 -2 13 3 10 4 -3 6 6
3 20 -3 17 2 30 16 43 16 13 18 21 10 29 -13 13 6 43 25 39 7 -1 12 9 12 23 0
14 12 37 28 52 15 15 27 36 27 46 0 11 8 30 18 43 28 37 62 108 64 134 1 14 8
27 15 29 13 5 93 161 93 182 0 6 10 24 22 39 16 21 23 45 25 94 2 36 6 78 9
94 4 18 2 27 -6 27 -7 0 -10 7 -6 16 3 8 2 12 -4 9 -13 -8 -13 8 0 21 5 5 6
14 2 21 -5 7 -12 -1 -18 -22 -8 -25 -8 -33 0 -29 6 3 3 -1 -6 -8 -19 -16 -190
-351 -844 -1648 -240 -476 -447 -881 -460 -901 -13 -21 -41 -46 -66 -58 -43
-20 -58 -21 -411 -21 -365 0 -366 0 -391 23 -58 50 -72 18 349 853 750 1488
908 1799 924 1818 9 10 32 26 51 37 32 17 65 18 427 19 362 0 395 -1 435 -19z
m-352 -986 c0 -5 -5 -3 -10 5 -5 8 -10 20 -10 25 0 6 5 3 10 -5 5 -8 10 -19
10 -25z m1326 -851 c-3 -8 7 -29 23 -47 38 -43 381 -730 381 -763 0 -15 -12
-38 -29 -55 l-29 -29 -1117 0 -1116 0 -24 25 c-14 13 -25 34 -25 47 0 27 330
661 363 696 12 14 40 33 63 43 38 17 85 19 782 19 408 1 742 3 742 6 0 3 -9
19 -21 35 -11 16 -17 33 -14 39 9 15 27 1 21 -16z"/>
</g>
</svg>
